<mxfile host="app.diagrams.net" modified="2023-04-25T10:59:16.742Z" agent="Mozilla/5.0 (Windows NT 10.0; Win64; x64) AppleWebKit/537.36 (KHTML, like Gecko) Chrome/112.0.0.0 Safari/537.36" version="21.2.1" etag="ABIfSbVCUCwpEnvmLUir" type="github">
  <diagram name="Page-1" id="0oD3E8MKBTqzuVDsv77h">
    <mxGraphModel>
      <root>
        <mxCell id="0" />
        <mxCell id="1" parent="0" />
      </root>
    </mxGraphModel>
  </diagram>
</mxfile>
